<svg version="1.1"
  xmlns="http://www.w3.org/2000/svg" width="32" height="32" viewBox="0 0 32 32">
  <path d="M12 25.6c-0.88 0-1.633-0.313-2.26-0.94s-0.94-1.38-0.94-2.26v-19.2c0-0.88 0.313-1.633 0.94-2.26s1.38-0.94 2.26-0.94h14.4c0.88 0 1.633 0.313 2.26 0.94s0.94 1.38 0.94 2.26v19.2c0 0.88-0.313 1.633-0.94 2.26s-1.38 0.94-2.26 0.94h-14.4zM12 22.4h14.4v-19.2h-14.4v19.2zM5.6 32c-0.88 0-1.633-0.313-2.26-0.94s-0.94-1.38-0.94-2.26v-20.8c0-0.453 0.153-0.833 0.46-1.14s0.687-0.46 1.14-0.46c0.453 0 0.833 0.153 1.14 0.46s0.46 0.687 0.46 1.14v20.8h16c0.453 0 0.833 0.153 1.14 0.46s0.46 0.687 0.46 1.14-0.153 0.833-0.46 1.14c-0.307 0.307-0.687 0.46-1.14 0.46h-16z"></path>
</svg>
