<svg width="18" height="18" viewBox="0 0 18 18" fill="none" xmlns="http://www.w3.org/2000/svg">
<path d="M8.16699 14.2098C9.7781 14.2098 11.1531 13.6438 12.292 12.5119C13.4309 11.3799 14.0003 10.0015 14.0003 8.37647C14.0003 6.76535 13.4309 5.39035 12.292 4.25147C11.1531 3.11258 9.7781 2.54313 8.16699 2.54313C6.54199 2.54313 5.16352 3.11258 4.03158 4.25147C2.89963 5.39035 2.33366 6.76535 2.33366 8.37647C2.33366 10.0015 2.89963 11.3799 4.03158 12.5119C5.16352 13.6438 6.54199 14.2098 8.16699 14.2098ZM8.16699 11.7098C7.01421 11.7098 5.98991 11.4008 5.09408 10.7827C4.19824 10.1647 3.55588 9.36258 3.16699 8.37647C3.55588 7.40424 4.19824 6.60563 5.09408 5.98063C5.98991 5.35563 7.01421 5.04313 8.16699 5.04313C9.30588 5.04313 10.3232 5.35563 11.2191 5.98063C12.1149 6.60563 12.7642 7.40424 13.167 8.37647C12.7642 9.36258 12.1149 10.1647 11.2191 10.7827C10.3232 11.4008 9.30588 11.7098 8.16699 11.7098ZM8.16699 10.4598C8.93088 10.4598 9.63227 10.2758 10.2712 9.90772C10.91 9.53966 11.41 9.02924 11.7712 8.37647C11.41 7.73758 10.91 7.23063 10.2712 6.85563C9.63227 6.48063 8.93088 6.29313 8.16699 6.29313C7.38921 6.29313 6.68088 6.48063 6.04199 6.85563C5.4031 7.23063 4.9031 7.73758 4.54199 8.37647C4.9031 9.02924 5.4031 9.53966 6.04199 9.90772C6.68088 10.2758 7.38921 10.4598 8.16699 10.4598ZM8.16699 9.62646C8.51421 9.62646 8.80935 9.50841 9.05241 9.2723C9.29546 9.03619 9.41699 8.73758 9.41699 8.37647C9.41699 8.02924 9.29546 7.7341 9.05241 7.49105C8.80935 7.24799 8.51421 7.12647 8.16699 7.12647C7.80588 7.12647 7.50727 7.24799 7.27116 7.49105C7.03505 7.7341 6.91699 8.02924 6.91699 8.37647C6.91699 8.73758 7.03505 9.03619 7.27116 9.2723C7.50727 9.50841 7.80588 9.62646 8.16699 9.62646ZM8.16699 15.8765C7.12533 15.8765 6.14963 15.6785 5.23991 15.2827C4.33019 14.8869 3.53852 14.3522 2.86491 13.6785C2.1913 13.0049 1.65658 12.2133 1.26074 11.3035C0.864909 10.3938 0.666992 9.41813 0.666992 8.37647C0.666992 7.34869 0.864909 6.37994 1.26074 5.47022C1.65658 4.56049 2.1913 3.76535 2.86491 3.0848C3.53852 2.40424 4.33019 1.86605 5.23991 1.47021C6.14963 1.07438 7.12533 0.876465 8.16699 0.876465C9.19477 0.876465 10.1635 1.07438 11.0732 1.47021C11.983 1.86605 12.7781 2.40424 13.4587 3.0848C14.1392 3.76535 14.6774 4.56049 15.0732 5.47022C15.4691 6.37994 15.667 7.34869 15.667 8.37647C15.667 9.26535 15.5212 10.1056 15.2295 10.8973C14.9378 11.689 14.535 12.4112 14.0212 13.064L17.3337 16.3765L16.1462 17.5431L12.8337 14.2515C12.1809 14.7654 11.4587 15.1647 10.667 15.4494C9.87533 15.7341 9.04199 15.8765 8.16699 15.8765Z" fill="black" fill-opacity="0.54"/>
</svg>
