<svg width="16" height="16" viewBox="0 0 16 16" fill="none" xmlns="http://www.w3.org/2000/svg">
<path fill-rule="evenodd" clip-rule="evenodd" d="M0.5 4.13853C0.5 2.93853 0.5 2.33853 0.733571 1.87996C0.939011 1.47677 1.26681 1.14897 1.67 0.943532C2.12857 0.709961 2.72857 0.709961 3.92857 0.709961H4.78571C5.53571 0.709961 5.91071 0.709961 6.19679 0.855675C6.4492 0.984148 6.65438 1.18933 6.78286 1.44175C6.92857 1.72782 6.92857 2.10282 6.92857 2.85282V7.13853C6.92857 7.88853 6.92857 8.26353 6.78286 8.5496C6.65438 8.80202 6.4492 9.0072 6.19679 9.13568C5.91071 9.28139 5.53571 9.28139 4.78571 9.28139H2.64286C1.89286 9.28139 1.51786 9.28139 1.23179 9.13568C0.978929 9.0071 0.774286 8.80246 0.645714 8.5496C0.5 8.26353 0.5 7.88853 0.5 7.13853V4.13853ZM3.92857 2.3171H4.78571C4.94286 2.31665 5.10001 2.31737 5.25714 2.31925L5.31821 2.32032C5.32077 2.49781 5.32184 2.67531 5.32143 2.85282V7.13853C5.32143 7.32925 5.32143 7.48032 5.31929 7.60996L5.31821 7.67103C5.14073 7.67359 4.96322 7.67466 4.78571 7.67425H2.64286C2.45214 7.67425 2.30107 7.67425 2.17143 7.6721L2.11036 7.67103C2.1078 7.49354 2.10673 7.31604 2.10714 7.13853V4.13853C2.10714 3.51175 2.10929 3.13889 2.13071 2.86246C2.13474 2.77502 2.1473 2.68818 2.16821 2.60318C2.21887 2.50752 2.29731 2.42944 2.39321 2.37925C2.4125 2.37282 2.48321 2.3546 2.6525 2.34068C2.92893 2.31818 3.30179 2.3171 3.92857 2.3171Z" fill="black" fill-opacity="0.54"/>
<path fill-rule="evenodd" clip-rule="evenodd" d="M9.07143 9.28139C9.07143 8.53139 9.07143 8.15639 9.21714 7.87032C9.34562 7.61791 9.5508 7.41272 9.80321 7.28425C10.0893 7.13853 10.4643 7.13853 11.2143 7.13853H13.3571C14.1071 7.13853 14.4821 7.13853 14.7693 7.28425C15.0213 7.4129 15.2261 7.61807 15.3543 7.87032C15.5 8.15639 15.5 8.53139 15.5 9.28139V12.2814C15.5 13.4814 15.5 14.0814 15.2664 14.54C15.061 14.9431 14.7332 15.271 14.33 15.4764C13.8714 15.71 13.2714 15.71 12.0714 15.71H11.2143C10.4643 15.71 10.0893 15.71 9.80321 15.5642C9.55036 15.4357 9.34571 15.231 9.21714 14.9792C9.07143 14.6921 9.07143 14.3171 9.07143 13.5671V9.28139ZM11.2143 8.74568H13.3571C13.5143 8.74523 13.6714 8.74594 13.8286 8.74782L13.8896 8.74889L13.8907 8.80996C13.8929 8.9396 13.8929 9.09068 13.8929 9.28139V12.2814C13.8929 12.9082 13.8907 13.281 13.8693 13.5575C13.8554 13.7267 13.8371 13.7975 13.8318 13.8167C13.7811 13.9124 13.7027 13.9905 13.6068 14.0407C13.5875 14.0471 13.5168 14.0653 13.3475 14.0792C13.0711 14.1017 12.6982 14.1028 12.0714 14.1028H11.2143C11.0236 14.1028 10.8725 14.1028 10.7429 14.1007L10.6818 14.0996L10.6807 14.0385C10.6786 13.9089 10.6786 13.7578 10.6786 13.5671V9.28139C10.6786 9.09068 10.6786 8.9396 10.6807 8.80996L10.6818 8.74889C10.8593 8.74633 11.0368 8.74526 11.2143 8.74568Z" fill="black" fill-opacity="0.54"/>
<path fill-rule="evenodd" clip-rule="evenodd" d="M0.617857 11.1425C0.5 11.405 0.5 11.7414 0.5 12.4132C0.5 13.4889 0.5 14.0267 0.688571 14.4467C0.903461 14.9242 1.28574 15.3065 1.76321 15.5214C2.18321 15.71 2.72107 15.71 3.79679 15.71H4.78571C5.53571 15.71 5.91071 15.71 6.19679 15.5642C6.44903 15.4361 6.6542 15.2313 6.78286 14.9792C6.92857 14.6921 6.92857 14.3171 6.92857 13.5671V12.4957C6.92857 11.7457 6.92857 11.3707 6.78286 11.0835C6.6542 10.8315 6.44903 10.6267 6.19679 10.4985C5.91071 10.3528 5.53571 10.3528 4.78571 10.3528H2.56036C1.8875 10.3528 1.55214 10.3528 1.28964 10.4707C0.991145 10.605 0.752169 10.844 0.617857 11.1425ZM4.78571 11.96H2.56036C2.38893 11.96 2.25393 11.96 2.13821 11.9621H2.10929V11.991C2.10714 12.1067 2.10714 12.2417 2.10714 12.4132C2.10714 12.9746 2.10714 13.3089 2.12643 13.5585C2.13714 13.7117 2.15214 13.776 2.1575 13.7942C2.21094 13.9081 2.30273 13.9995 2.41679 14.0525C2.43393 14.0578 2.49821 14.0728 2.6525 14.0835C2.9 14.1017 3.23536 14.1028 3.79679 14.1028H4.78571C4.97643 14.1028 5.1275 14.1028 5.25714 14.1007L5.31821 14.0996L5.31929 14.0385C5.32143 13.9089 5.32143 13.7578 5.32143 13.5671V12.4957C5.32184 12.3182 5.32077 12.1407 5.31821 11.9632L5.25714 11.9621C5.1275 11.96 4.97643 11.96 4.78571 11.96Z" fill="black" fill-opacity="0.54"/>
<path fill-rule="evenodd" clip-rule="evenodd" d="M9.07143 2.85282C9.07143 2.10282 9.07143 1.72782 9.21714 1.44175C9.34562 1.18933 9.5508 0.984148 9.80321 0.855675C10.0893 0.709961 10.4643 0.709961 11.2143 0.709961H12.2032C13.2789 0.709961 13.8168 0.709961 14.2368 0.898532C14.7143 1.11342 15.0965 1.4957 15.3114 1.97318C15.5 2.39318 15.5 2.93103 15.5 4.00675C15.5 4.6796 15.5 5.01496 15.3821 5.27746C15.2478 5.57596 15.0089 5.81493 14.7104 5.94925C14.4479 6.0671 14.1114 6.0671 13.4396 6.0671H11.2143C10.4643 6.0671 10.0893 6.0671 9.80321 5.92139C9.55036 5.79282 9.34571 5.58817 9.21714 5.33532C9.07143 5.04925 9.07143 4.67425 9.07143 3.92425V2.85282ZM11.2143 2.3171H12.2032C12.5848 2.31127 12.9664 2.3177 13.3475 2.33639C13.4268 2.33985 13.5057 2.35025 13.5832 2.36746C13.6973 2.42043 13.7891 2.51184 13.8425 2.62568C13.8597 2.70319 13.8701 2.78206 13.8736 2.86139C13.8929 3.10996 13.8929 3.44532 13.8929 4.00675C13.8929 4.17818 13.8929 4.31318 13.8907 4.42889V4.45782C13.7404 4.45961 13.59 4.46032 13.4396 4.45996H11.2143C11.0236 4.45996 10.8725 4.45996 10.7429 4.45782L10.6818 4.45675L10.6807 4.39568C10.6786 4.26603 10.6786 4.11496 10.6786 3.92425V2.85282C10.6786 2.6621 10.6786 2.51103 10.6807 2.38139L10.6818 2.32032C10.8593 2.31776 11.0368 2.31669 11.2143 2.3171Z" fill="black" fill-opacity="0.54"/>
</svg>
