<svg width="14" height="16" viewBox="0 0 14 16" fill="none" xmlns="http://www.w3.org/2000/svg">
<path d="M2.8335 15.5C2.37516 15.5 1.9828 15.3368 1.65641 15.0104C1.33002 14.684 1.16683 14.2917 1.16683 13.8333V3C0.930718 3 0.732802 2.92014 0.573079 2.76042C0.413357 2.60069 0.333496 2.40278 0.333496 2.16667C0.333496 1.93056 0.413357 1.73264 0.573079 1.57292C0.732802 1.41319 0.930718 1.33333 1.16683 1.33333H4.50016C4.50016 1.09722 4.58002 0.899306 4.73975 0.739583C4.89947 0.579861 5.09738 0.5 5.3335 0.5H8.66683C8.90294 0.5 9.10086 0.579861 9.26058 0.739583C9.4203 0.899306 9.50016 1.09722 9.50016 1.33333H12.8335C13.0696 1.33333 13.2675 1.41319 13.4272 1.57292C13.587 1.73264 13.6668 1.93056 13.6668 2.16667C13.6668 2.40278 13.587 2.60069 13.4272 2.76042C13.2675 2.92014 13.0696 3 12.8335 3V13.8333C12.8335 14.2917 12.6703 14.684 12.3439 15.0104C12.0175 15.3368 11.6252 15.5 11.1668 15.5H2.8335ZM11.1668 3H2.8335V13.8333H11.1668V3ZM4.50016 12.1667H6.16683V4.66667H4.50016V12.1667ZM7.8335 12.1667H9.50016V4.66667H7.8335V12.1667Z" fill="black" fill-opacity="0.54"/>
</svg>
