<svg width="18" height="17" viewBox="0 0 18 17" fill="none" xmlns="http://www.w3.org/2000/svg">
<path d="M2.33366 16.7098C1.87533 16.7098 1.48296 16.5466 1.15658 16.2202C0.830187 15.8938 0.666992 15.5015 0.666992 15.0431V5.87646C0.666992 5.41813 0.830187 5.02577 1.15658 4.69938C1.48296 4.37299 1.87533 4.2098 2.33366 4.2098H5.66699V2.54313C5.66699 2.0848 5.83019 1.69244 6.15658 1.36605C6.48296 1.03966 6.87533 0.876465 7.33366 0.876465H10.667C11.1253 0.876465 11.5177 1.03966 11.8441 1.36605C12.1705 1.69244 12.3337 2.0848 12.3337 2.54313V4.2098H15.667C16.1253 4.2098 16.5177 4.37299 16.8441 4.69938C17.1705 5.02577 17.3337 5.41813 17.3337 5.87646V15.0431C17.3337 15.5015 17.1705 15.8938 16.8441 16.2202C16.5177 16.5466 16.1253 16.7098 15.667 16.7098H2.33366ZM2.33366 15.0431H15.667V5.87646H2.33366V15.0431ZM7.33366 4.2098H10.667V2.54313H7.33366V4.2098Z" fill="black" fill-opacity="0.54"/>
</svg>
