<svg width="16" height="14" viewBox="0 0 16 14" fill="none" xmlns="http://www.w3.org/2000/svg">
<path d="M3 13.8768C2.76389 13.8768 2.56597 13.7969 2.40625 13.6372C2.24653 13.4775 2.16667 13.2796 2.16667 13.0435V8.04346H1.33333C1.09722 8.04346 0.899306 7.9636 0.739583 7.80387C0.579861 7.64415 0.5 7.44623 0.5 7.21012C0.5 6.97401 0.579861 6.7761 0.739583 6.61637C0.899306 6.45665 1.09722 6.37679 1.33333 6.37679H4.66667C4.90278 6.37679 5.10069 6.45665 5.26042 6.61637C5.42014 6.7761 5.5 6.97401 5.5 7.21012C5.5 7.44623 5.42014 7.64415 5.26042 7.80387C5.10069 7.9636 4.90278 8.04346 4.66667 8.04346H3.83333V13.0435C3.83333 13.2796 3.75347 13.4775 3.59375 13.6372C3.43403 13.7969 3.23611 13.8768 3 13.8768ZM3 4.71012C2.76389 4.71012 2.56597 4.63026 2.40625 4.47054C2.24653 4.31082 2.16667 4.1129 2.16667 3.87679V1.37679C2.16667 1.14068 2.24653 0.942763 2.40625 0.78304C2.56597 0.623318 2.76389 0.543457 3 0.543457C3.23611 0.543457 3.43403 0.623318 3.59375 0.78304C3.75347 0.942763 3.83333 1.14068 3.83333 1.37679V3.87679C3.83333 4.1129 3.75347 4.31082 3.59375 4.47054C3.43403 4.63026 3.23611 4.71012 3 4.71012ZM6.33333 4.71012C6.09722 4.71012 5.89931 4.63026 5.73958 4.47054C5.57986 4.31082 5.5 4.1129 5.5 3.87679C5.5 3.64068 5.57986 3.44276 5.73958 3.28304C5.89931 3.12332 6.09722 3.04346 6.33333 3.04346H7.16667V1.37679C7.16667 1.14068 7.24653 0.942763 7.40625 0.78304C7.56597 0.623318 7.76389 0.543457 8 0.543457C8.23611 0.543457 8.43403 0.623318 8.59375 0.78304C8.75347 0.942763 8.83333 1.14068 8.83333 1.37679V3.04346H9.66667C9.90278 3.04346 10.1007 3.12332 10.2604 3.28304C10.4201 3.44276 10.5 3.64068 10.5 3.87679C10.5 4.1129 10.4201 4.31082 10.2604 4.47054C10.1007 4.63026 9.90278 4.71012 9.66667 4.71012H6.33333ZM8 13.8768C7.76389 13.8768 7.56597 13.7969 7.40625 13.6372C7.24653 13.4775 7.16667 13.2796 7.16667 13.0435V7.21012C7.16667 6.97401 7.24653 6.7761 7.40625 6.61637C7.56597 6.45665 7.76389 6.37679 8 6.37679C8.23611 6.37679 8.43403 6.45665 8.59375 6.61637C8.75347 6.7761 8.83333 6.97401 8.83333 7.21012V13.0435C8.83333 13.2796 8.75347 13.4775 8.59375 13.6372C8.43403 13.7969 8.23611 13.8768 8 13.8768ZM13 13.8768C12.7639 13.8768 12.566 13.7969 12.4062 13.6372C12.2465 13.4775 12.1667 13.2796 12.1667 13.0435V11.3768H11.3333C11.0972 11.3768 10.8993 11.2969 10.7396 11.1372C10.5799 10.9775 10.5 10.7796 10.5 10.5435C10.5 10.3073 10.5799 10.1094 10.7396 9.94971C10.8993 9.78998 11.0972 9.71012 11.3333 9.71012H14.6667C14.9028 9.71012 15.1007 9.78998 15.2604 9.94971C15.4201 10.1094 15.5 10.3073 15.5 10.5435C15.5 10.7796 15.4201 10.9775 15.2604 11.1372C15.1007 11.2969 14.9028 11.3768 14.6667 11.3768H13.8333V13.0435C13.8333 13.2796 13.7535 13.4775 13.5938 13.6372C13.434 13.7969 13.2361 13.8768 13 13.8768ZM13 8.04346C12.7639 8.04346 12.566 7.9636 12.4062 7.80387C12.2465 7.64415 12.1667 7.44623 12.1667 7.21012V1.37679C12.1667 1.14068 12.2465 0.942763 12.4062 0.78304C12.566 0.623318 12.7639 0.543457 13 0.543457C13.2361 0.543457 13.434 0.623318 13.5938 0.78304C13.7535 0.942763 13.8333 1.14068 13.8333 1.37679V7.21012C13.8333 7.44623 13.7535 7.64415 13.5938 7.80387C13.434 7.9636 13.2361 8.04346 13 8.04346Z" fill="black" fill-opacity="0.54"/>
</svg>
