<svg width="14" height="13" viewBox="0 0 14 13" fill="none" xmlns="http://www.w3.org/2000/svg">
<path fill-rule="evenodd" clip-rule="evenodd" d="M6.64462 0.110623C6.74901 0.0385821 6.87284 0 6.99967 0C7.12651 0 7.25034 0.0385821 7.35472 0.110623L13.3972 4.27787C13.5216 4.36406 13.6105 4.49245 13.6475 4.63921C13.6844 4.78598 13.6668 4.94116 13.598 5.07594C13.5292 5.21073 13.4138 5.31597 13.2732 5.37214C13.1327 5.4283 12.9766 5.43158 12.8338 5.38136V10.8346C12.8338 11.2767 12.6582 11.7007 12.3456 12.0133C12.033 12.3259 11.609 12.5015 11.1669 12.5015H2.83243C2.39034 12.5015 1.96636 12.3259 1.65375 12.0133C1.34115 11.7007 1.16553 11.2767 1.16553 10.8346V5.38136C1.02277 5.43158 0.866632 5.4283 0.726103 5.37214C0.585574 5.31597 0.470194 5.21073 0.401375 5.07594C0.332557 4.94116 0.314975 4.78598 0.351892 4.63921C0.388808 4.49245 0.477716 4.36406 0.602116 4.27787L6.64462 0.110623ZM2.4157 4.54624V4.58375V10.8346C2.4157 10.9451 2.45961 11.0511 2.53776 11.1293C2.61591 11.2074 2.7219 11.2514 2.83243 11.2514H4.49933V7.70919C4.49933 7.5434 4.56518 7.38441 4.68241 7.26718C4.79964 7.14996 4.95863 7.0841 5.12441 7.0841H8.87494C9.04072 7.0841 9.19971 7.14996 9.31694 7.26718C9.43417 7.38441 9.50002 7.5434 9.50002 7.70919V11.2514H11.1669C11.2774 11.2514 11.3834 11.2074 11.4616 11.1293C11.5397 11.0511 11.5836 10.9451 11.5836 10.8346V4.58375L11.5845 4.54624L7.00051 1.38413L2.4157 4.54624ZM8.24985 11.2514V8.33428H5.7495V11.2514H8.24985Z" fill="black" fill-opacity="0.54"/>
</svg>
