<svg version="1.1"
  xmlns="http://www.w3.org/2000/svg" width="32" height="32" viewBox="0 0 32 32">
  <path d="M16 24c0.453 0 0.833-0.153 1.14-0.46s0.46-0.687 0.46-1.14v-6.4c0-0.453-0.153-0.833-0.46-1.14s-0.687-0.46-1.14-0.46c-0.453 0-0.833 0.153-1.14 0.46s-0.46 0.687-0.46 1.14v6.4c0 0.453 0.153 0.833 0.46 1.14s0.687 0.46 1.14 0.46zM16 11.2c0.453 0 0.833-0.153 1.14-0.46s0.46-0.687 0.46-1.14c0-0.453-0.153-0.833-0.46-1.14s-0.687-0.46-1.14-0.46c-0.453 0-0.833 0.153-1.14 0.46s-0.46 0.687-0.46 1.14c0 0.453 0.153 0.833 0.46 1.14s0.687 0.46 1.14 0.46zM16 32c-2.213 0-4.293-0.42-6.24-1.26s-3.64-1.98-5.080-3.42c-1.44-1.44-2.58-3.133-3.42-5.080s-1.26-4.027-1.26-6.24 0.42-4.293 1.26-6.24c0.84-1.947 1.98-3.64 3.42-5.080s3.133-2.58 5.080-3.42c1.947-0.84 4.027-1.26 6.24-1.26s4.293 0.42 6.24 1.26c1.947 0.84 3.64 1.98 5.080 3.42s2.58 3.133 3.42 5.080c0.84 1.947 1.26 4.027 1.26 6.24s-0.42 4.293-1.26 6.24c-0.84 1.947-1.98 3.64-3.42 5.080s-3.133 2.58-5.080 3.42c-1.947 0.84-4.027 1.26-6.24 1.26zM16 28.8c3.573 0 6.6-1.24 9.080-3.72s3.72-5.507 3.72-9.080-1.24-6.6-3.72-9.080c-2.48-2.48-5.507-3.72-9.080-3.72s-6.6 1.24-9.080 3.72c-2.48 2.48-3.72 5.507-3.72 9.080s1.24 6.6 3.72 9.080c2.48 2.48 5.507 3.72 9.080 3.72z"></path>
</svg>
