<svg version="1.1"
  xmlns="http://www.w3.org/2000/svg" width="32" height="32" viewBox="0 0 32 32">
  <path d="M5.333 30.222c-0.504 0-0.926-0.17-1.267-0.511s-0.511-0.763-0.511-1.267v-10.667h-1.778c-0.504 0-0.926-0.17-1.267-0.511s-0.511-0.763-0.511-1.267c0-0.504 0.17-0.926 0.511-1.267s0.763-0.511 1.267-0.511h7.111c0.504 0 0.926 0.17 1.267 0.511s0.511 0.763 0.511 1.267c0 0.504-0.17 0.926-0.511 1.267s-0.763 0.511-1.267 0.511h-1.778v10.667c0 0.504-0.17 0.926-0.511 1.267s-0.763 0.511-1.267 0.511zM5.333 10.667c-0.504 0-0.926-0.17-1.267-0.511s-0.511-0.763-0.511-1.267v-5.333c0-0.504 0.17-0.926 0.511-1.267s0.763-0.511 1.267-0.511c0.504 0 0.926 0.17 1.267 0.511s0.511 0.763 0.511 1.267v5.333c0 0.504-0.17 0.926-0.511 1.267s-0.763 0.511-1.267 0.511zM12.444 10.667c-0.504 0-0.926-0.17-1.267-0.511s-0.511-0.763-0.511-1.267c0-0.504 0.17-0.926 0.511-1.267s0.763-0.511 1.267-0.511h1.778v-3.556c0-0.504 0.17-0.926 0.511-1.267s0.763-0.511 1.267-0.511c0.504 0 0.926 0.17 1.267 0.511s0.511 0.763 0.511 1.267v3.556h1.778c0.504 0 0.926 0.17 1.267 0.511s0.511 0.763 0.511 1.267c0 0.504-0.17 0.926-0.511 1.267s-0.763 0.511-1.267 0.511h-7.111zM16 30.222c-0.504 0-0.926-0.17-1.267-0.511s-0.511-0.763-0.511-1.267v-12.444c0-0.504 0.17-0.926 0.511-1.267s0.763-0.511 1.267-0.511c0.504 0 0.926 0.17 1.267 0.511s0.511 0.763 0.511 1.267v12.444c0 0.504-0.17 0.926-0.511 1.267s-0.763 0.511-1.267 0.511zM26.667 30.222c-0.504 0-0.926-0.17-1.267-0.511s-0.511-0.763-0.511-1.267v-3.556h-1.778c-0.504 0-0.926-0.17-1.267-0.511s-0.511-0.763-0.511-1.267c0-0.504 0.17-0.926 0.511-1.267s0.763-0.511 1.267-0.511h7.111c0.504 0 0.926 0.17 1.267 0.511s0.511 0.763 0.511 1.267c0 0.504-0.17 0.926-0.511 1.267s-0.763 0.511-1.267 0.511h-1.778v3.556c0 0.504-0.17 0.926-0.511 1.267s-0.763 0.511-1.267 0.511zM26.667 17.778c-0.504 0-0.926-0.17-1.267-0.511s-0.511-0.763-0.511-1.267v-12.444c0-0.504 0.17-0.926 0.511-1.267s0.763-0.511 1.267-0.511c0.504 0 0.926 0.17 1.267 0.511s0.511 0.763 0.511 1.267v12.444c0 0.504-0.17 0.926-0.511 1.267s-0.763 0.511-1.267 0.511z"></path>
</svg>
