<svg width="18" height="17" viewBox="0 0 18 17" fill="none" xmlns="http://www.w3.org/2000/svg">
<path d="M16.167 16.7098L12.2503 12.7931C11.6809 13.2376 11.0524 13.5848 10.3649 13.8348C9.67741 14.0848 8.94477 14.2098 8.16699 14.2098C6.91699 14.2098 5.78852 13.9042 4.78158 13.2931C3.77463 12.682 2.97949 11.8765 2.39616 10.8765H4.43783C4.91005 11.3904 5.46213 11.7966 6.09408 12.0952C6.72602 12.3938 7.41699 12.5431 8.16699 12.5431C9.55588 12.5431 10.7364 12.057 11.7087 11.0848C12.6809 10.1126 13.167 8.93202 13.167 7.54313C13.167 6.15424 12.6809 4.97369 11.7087 4.00147C10.7364 3.02924 9.55588 2.54313 8.16699 2.54313C6.86144 2.54313 5.73296 2.9841 4.78158 3.86605C3.83019 4.74799 3.29894 5.8348 3.18783 7.12647H1.52116C1.63227 5.36258 2.32324 3.87994 3.59408 2.67855C4.86491 1.47716 6.38921 0.876465 8.16699 0.876465C10.0281 0.876465 11.6045 1.5223 12.8962 2.81396C14.1878 4.10563 14.8337 5.68202 14.8337 7.54313C14.8337 8.32091 14.7087 9.05355 14.4587 9.74105C14.2087 10.4285 13.8614 11.057 13.417 11.6265L17.3337 15.5431L16.167 16.7098ZM7.27116 10.8765L5.95866 6.54313L4.87533 9.62646H0.666992V8.37647H4.00033L5.37533 4.41813H6.62533L7.89616 8.66813L8.79199 5.87646H10.042L11.292 8.37647H11.917V9.62646H10.5212L9.54199 7.66813L8.50033 10.8765H7.27116Z" fill="black" fill-opacity="0.54"/>
</svg>
