<svg width="196" height="61" viewBox="0 0 196 61" fill="none" xmlns="http://www.w3.org/2000/svg">
<g clip-path="url(#clip0_625_3388)">
<path d="M69.0221 41.2173C69.0221 42.0677 68.635 42.0871 67.6916 42.0871C66.7479 42.0871 66.3602 42.0679 66.3602 41.2173V32.7761C66.3602 32.7761 64.2639 37.6268 63.9676 38.1472C63.5427 38.9197 62.7663 38.9391 62.1189 38.9391C61.4531 38.9391 60.6959 38.9198 60.2705 38.1472C59.9746 37.6268 57.8965 32.7761 57.8965 32.7761V41.2173C57.8965 42.0677 57.4915 42.0871 56.5655 42.0871C55.6041 42.0871 55.2344 42.0679 55.2344 41.2173V29.4404C55.2344 28.5897 55.2344 28.5703 56.1963 28.5703C57.2513 28.5703 58.0081 28.5896 58.4342 29.3622C58.6189 29.6726 61.9156 36.5442 62.1189 36.8935C62.3229 36.5442 65.3595 30.1159 65.8033 29.3622C66.2297 28.5897 67.0055 28.5703 68.0607 28.5703C69.0045 28.5703 69.0225 28.5896 69.0225 29.4404L69.0221 41.2173Z" fill="#32323C"/>
<path d="M35.8978 38.9774C35.8978 38.9774 35.3073 40.9471 35.2503 41.2174C35.0475 42.0679 34.2904 42.0872 33.3469 42.0872C32.421 42.0872 32.3843 42.049 32.569 41.2174C32.809 40.1744 35.271 30.2317 35.475 29.4195C35.6605 28.5895 35.6971 28.5703 36.8632 28.5703C36.9923 28.5703 38.3804 28.5703 38.5282 28.5703C39.6763 28.5703 39.714 28.5895 39.8993 29.4195C40.1021 30.2505 42.6014 40.2718 42.824 41.2174C43.0081 42.0285 42.9525 42.0872 42.0275 42.0872C41.0654 42.0872 40.3274 42.068 40.1233 41.2174C40.0677 40.9665 39.4571 38.9774 39.4571 38.9774H35.8978ZM39.179 36.7016L37.4401 29.9037H37.9346L36.1953 36.7016H39.179Z" fill="#32323C"/>
<path d="M48.8071 42.0876H45.4904C44.5464 42.0876 44.3438 41.8757 44.3438 41.0251V29.6242C44.3438 28.7737 44.5464 28.5625 45.4904 28.5625H48.8071C52.5284 28.5625 53.8066 29.9548 53.8066 35.3247C53.8068 40.696 52.5479 42.0876 48.8071 42.0876ZM46.6391 30.9945V39.655H48.8073C50.2379 39.655 51.0504 39.3823 51.0504 35.3246C51.0688 31.2674 50.3542 30.9941 48.8073 30.9941L46.6391 30.9945Z" fill="#32323C"/>
<path d="M73.4174 41.2179C73.4174 42.0683 73.0302 42.0877 72.0875 42.0877C71.1418 42.0877 70.7539 42.0685 70.7539 41.2179V29.4365C70.7539 28.5866 71.1418 28.5664 72.0875 28.5664C73.0302 28.5664 73.4174 28.5861 73.4174 29.4365V41.2179Z" fill="#32323C"/>
<path d="M103.74 41.2177C103.388 40.5998 101.705 38.0688 101.131 37.0461H99.5355L99.5333 41.2177C99.5333 42.0668 99.146 42.0855 98.2022 42.0855C97.2584 42.0855 96.8704 42.066 96.8711 41.217L96.8733 29.4388C96.8733 28.5889 96.8922 28.5703 97.8346 28.5703H101.907C104.943 28.571 106.145 29.5946 106.145 32.6265C106.145 34.9434 105.46 36.4481 103.737 36.7951C104.054 37.3749 106.238 40.7168 106.551 41.219C106.996 41.9333 106.939 42.0875 105.996 42.0875C104.977 42.0875 104.221 42.0493 103.74 41.2177ZM99.5355 34.7696H102.037C103.134 34.7696 103.408 33.923 103.408 32.6265C103.408 31.6847 103.087 30.8473 101.721 30.8462H99.5355V34.7696Z" fill="#32323C"/>
<path d="M94.216 28.5705C95.2722 28.5705 95.2897 28.5912 95.2897 29.4012C95.2897 30.212 95.2707 31.0014 94.216 31.0014L89.7901 31.0009V33.9971L93.7711 33.998C94.828 33.998 94.844 34.4015 94.844 35.1363C94.844 35.87 94.8265 36.2743 93.7711 36.2743L89.7901 36.2725L89.7894 39.6558H94.456C95.5289 39.6558 95.5471 40.4473 95.5471 41.2572C95.5471 42.0682 95.5289 42.0876 94.4553 42.0876L88.0878 42.0856C87.1447 42.0856 87.125 42.0666 87.125 41.217L87.1272 29.4389C87.1286 28.589 87.1462 28.5703 88.0885 28.5703L94.216 28.5705Z" fill="#32323C"/>
<path d="M82.6939 41.2194C82.3246 40.5622 79.531 35.914 79.531 35.914H80.9523C80.9523 35.914 78.2338 40.4674 77.7904 41.2194C77.272 42.0497 76.5152 42.0878 75.4257 42.0878C74.4437 42.0878 74.3885 41.9527 74.8508 41.2194C75.2762 40.5432 78.6791 34.9493 78.6791 34.9493C78.6791 34.9493 75.5532 30.1446 75.1091 29.4698C74.6288 28.6973 74.7027 28.582 75.6094 28.582C76.7376 28.582 77.5124 28.64 78.0487 29.4698C78.5289 30.2035 80.9523 33.868 80.9523 33.868H79.531C79.531 33.868 82.0282 30.1063 82.4536 29.4698C82.9909 28.64 83.7658 28.582 84.8742 28.582C85.799 28.582 85.8734 28.7165 85.392 29.4698C84.9116 30.2035 81.8228 34.9493 81.8228 34.9493C81.8228 34.9493 85.2082 40.5051 85.6327 41.2194C86.0769 41.9711 86.0397 42.0878 85.0609 42.0878C83.9688 42.0878 83.1946 42.0497 82.6939 41.2194Z" fill="#32323C"/>
<path d="M30.936 25.0909C30.7531 24.5337 30.6205 24.1307 30.4523 23.8421C30.2202 23.4463 29.9068 23.2537 29.4945 23.2537C29.0729 23.2537 28.5739 23.4501 27.6708 23.8101L23.2319 26.0178L23.7547 20.8625C23.7844 19.4678 23.7981 18.8309 23.3949 18.4015C23.0192 18 22.4574 18 21.6071 18C20.7296 18 20.1501 18 19.7737 18.4111C19.374 18.846 19.4005 19.4818 19.4602 20.8709L20.0247 26.0174L15.5395 23.8083C14.7164 23.494 14.1715 23.2863 13.7458 23.2863C13.3358 23.2863 13.0244 23.47 12.7937 23.8472C12.626 24.1231 12.5047 24.4828 12.3245 25.0479C12.0344 25.9821 11.8753 26.4983 12.121 26.9826C12.3862 27.5075 12.9737 27.6894 14.2609 28.0861L19.1818 28.9591L15.7343 32.8753C14.9181 33.9404 14.545 34.4284 14.62 35.0079C14.6911 35.5514 15.1141 35.8712 15.8832 36.4509C16.5371 36.9454 16.969 37.2726 17.436 37.2726C18.1124 37.2709 18.5036 36.6448 19.2115 35.5081L21.6106 30.9475L24.0567 35.5142C24.7907 36.6477 25.1961 37.2732 25.864 37.2732C26.3319 37.2732 26.7513 36.9446 27.3843 36.45C28.1508 35.8701 28.5732 35.55 28.6439 35.0084C28.7189 34.4282 28.3457 33.9413 27.528 32.8753L24.0399 28.9598L29.0001 28.0878C30.2943 27.688 30.8859 27.5066 31.1475 26.9828C31.387 26.5022 31.2178 25.9732 30.936 25.0909Z" fill="#D31F35"/>
</g>
<defs>
<clipPath id="clip0_625_3388">
<rect width="134.086" height="24.21" fill="white" transform="translate(12 18)"/>
</clipPath>
</defs>
</svg>
