<svg width="19" height="14" viewBox="0 0 19 14" fill="none" xmlns="http://www.w3.org/2000/svg">
<path d="M2.33366 13.8768C1.87533 13.8768 1.48296 13.7136 1.15658 13.3872C0.830187 13.0608 0.666992 12.6685 0.666992 12.2101V2.21012C0.666992 1.75179 0.830187 1.35943 1.15658 1.03304C1.48296 0.706651 1.87533 0.543457 2.33366 0.543457H6.64616C6.86838 0.543457 7.08019 0.585124 7.28158 0.668457C7.48296 0.75179 7.66005 0.869846 7.81283 1.02262L9.00033 2.21012H15.667C16.1253 2.21012 16.5177 2.37332 16.8441 2.69971C17.1705 3.0261 17.3337 3.41846 17.3337 3.87679H8.31283L6.64616 2.21012H2.33366V12.2101L3.97949 6.73096C4.0906 6.36985 4.29546 6.08165 4.59408 5.86637C4.89269 5.6511 5.22255 5.54346 5.58366 5.54346H16.3337C16.9031 5.54346 17.351 5.76915 17.6774 6.22054C18.0038 6.67193 18.0906 7.16151 17.9378 7.68929L16.4378 12.6893C16.3267 13.0504 16.1219 13.3386 15.8232 13.5539C15.5246 13.7692 15.1948 13.8768 14.8337 13.8768H2.33366ZM4.08366 12.2101H14.8337L16.3337 7.21012H5.58366L4.08366 12.2101Z" fill="black" fill-opacity="0.54"/>
</svg>
