<svg width="18" height="18" viewBox="0 0 18 18" fill="none" xmlns="http://www.w3.org/2000/svg">
<path d="M7.33317 12.3332C7.56928 12.3332 7.7672 12.2533 7.92692 12.0936C8.08664 11.9339 8.1665 11.7359 8.1665 11.4998V6.49984C8.1665 6.26373 8.08664 6.06581 7.92692 5.90609C7.7672 5.74637 7.56928 5.6665 7.33317 5.6665C7.09706 5.6665 6.89914 5.74637 6.73942 5.90609C6.5797 6.06581 6.49984 6.26373 6.49984 6.49984V11.4998C6.49984 11.7359 6.5797 11.9339 6.73942 12.0936C6.89914 12.2533 7.09706 12.3332 7.33317 12.3332ZM10.6665 12.3332C10.9026 12.3332 11.1005 12.2533 11.2603 12.0936C11.42 11.9339 11.4998 11.7359 11.4998 11.4998V6.49984C11.4998 6.26373 11.42 6.06581 11.2603 5.90609C11.1005 5.74637 10.9026 5.6665 10.6665 5.6665C10.4304 5.6665 10.2325 5.74637 10.0728 5.90609C9.91303 6.06581 9.83317 6.26373 9.83317 6.49984V11.4998C9.83317 11.7359 9.91303 11.9339 10.0728 12.0936C10.2325 12.2533 10.4304 12.3332 10.6665 12.3332ZM8.99984 17.3332C7.84706 17.3332 6.76373 17.1144 5.74984 16.6769C4.73595 16.2394 3.854 15.6457 3.104 14.8957C2.354 14.1457 1.76025 13.2637 1.32275 12.2498C0.885254 11.2359 0.666504 10.1526 0.666504 8.99984C0.666504 7.84706 0.885254 6.76373 1.32275 5.74984C1.76025 4.73595 2.354 3.854 3.104 3.104C3.854 2.354 4.73595 1.76025 5.74984 1.32275C6.76373 0.885254 7.84706 0.666504 8.99984 0.666504C10.1526 0.666504 11.2359 0.885254 12.2498 1.32275C13.2637 1.76025 14.1457 2.354 14.8957 3.104C15.6457 3.854 16.2394 4.73595 16.6769 5.74984C17.1144 6.76373 17.3332 7.84706 17.3332 8.99984C17.3332 10.1526 17.1144 11.2359 16.6769 12.2498C16.2394 13.2637 15.6457 14.1457 14.8957 14.8957C14.1457 15.6457 13.2637 16.2394 12.2498 16.6769C11.2359 17.1144 10.1526 17.3332 8.99984 17.3332ZM8.99984 15.6665C10.8609 15.6665 12.4373 15.0207 13.729 13.729C15.0207 12.4373 15.6665 10.8609 15.6665 8.99984C15.6665 7.13873 15.0207 5.56234 13.729 4.27067C12.4373 2.979 10.8609 2.33317 8.99984 2.33317C7.13873 2.33317 5.56234 2.979 4.27067 4.27067C2.979 5.56234 2.33317 7.13873 2.33317 8.99984C2.33317 10.8609 2.979 12.4373 4.27067 13.729C5.56234 15.0207 7.13873 15.6665 8.99984 15.6665Z" fill="black" fill-opacity="0.54"/>
</svg>
