<svg width="10" height="12" viewBox="0 0 10 12" fill="none"
  xmlns="http://www.w3.org/2000/svg">
  <path d="M0.717773 3.4873V2.96094C0.717773 2.58268 0.799805 2.23861 0.963867 1.92871C1.12793 1.61882 1.36263 1.37044 1.66797 1.18359C1.97331 0.996745 2.33561 0.90332 2.75488 0.90332C3.18327 0.90332 3.54785 0.996745 3.84863 1.18359C4.15397 1.37044 4.38867 1.61882 4.55273 1.92871C4.7168 2.23861 4.79883 2.58268 4.79883 2.96094V3.4873C4.79883 3.85645 4.7168 4.19596 4.55273 4.50586C4.39323 4.81576 4.16081 5.06413 3.85547 5.25098C3.55469 5.43783 3.19238 5.53125 2.76855 5.53125C2.34473 5.53125 1.97786 5.43783 1.66797 5.25098C1.36263 5.06413 1.12793 4.81576 0.963867 4.50586C0.799805 4.19596 0.717773 3.85645 0.717773 3.4873ZM1.66797 2.96094V3.4873C1.66797 3.69694 1.70671 3.89518 1.78418 4.08203C1.86621 4.26888 1.98926 4.42155 2.15332 4.54004C2.31738 4.65397 2.52246 4.71094 2.76855 4.71094C3.01465 4.71094 3.21745 4.65397 3.37695 4.54004C3.53646 4.42155 3.65495 4.26888 3.73242 4.08203C3.8099 3.89518 3.84863 3.69694 3.84863 3.4873V2.96094C3.84863 2.74674 3.80762 2.54622 3.72559 2.35938C3.64811 2.16797 3.52734 2.0153 3.36328 1.90137C3.20378 1.78288 3.00098 1.72363 2.75488 1.72363C2.51335 1.72363 2.31055 1.78288 2.14648 1.90137C1.98698 2.0153 1.86621 2.16797 1.78418 2.35938C1.70671 2.54622 1.66797 2.74674 1.66797 2.96094ZM5.56445 9.09277V8.55957C5.56445 8.18587 5.64648 7.84408 5.81055 7.53418C5.97461 7.22428 6.20931 6.97591 6.51465 6.78906C6.81999 6.60221 7.18229 6.50879 7.60156 6.50879C8.02995 6.50879 8.39453 6.60221 8.69531 6.78906C9.00065 6.97591 9.23535 7.22428 9.39941 7.53418C9.56348 7.84408 9.64551 8.18587 9.64551 8.55957V9.09277C9.64551 9.46647 9.56348 9.80827 9.39941 10.1182C9.23991 10.4281 9.00749 10.6764 8.70215 10.8633C8.40137 11.0501 8.03906 11.1436 7.61523 11.1436C7.19141 11.1436 6.82682 11.0501 6.52148 10.8633C6.21615 10.6764 5.97917 10.4281 5.81055 10.1182C5.64648 9.80827 5.56445 9.46647 5.56445 9.09277ZM6.51465 8.55957V9.09277C6.51465 9.30241 6.55339 9.50293 6.63086 9.69434C6.71289 9.88118 6.83594 10.0339 7 10.1523C7.16406 10.2663 7.36914 10.3232 7.61523 10.3232C7.86133 10.3232 8.06413 10.2663 8.22363 10.1523C8.3877 10.0339 8.50846 9.88118 8.58594 9.69434C8.66341 9.50749 8.70215 9.30697 8.70215 9.09277V8.55957C8.70215 8.34538 8.66113 8.14486 8.5791 7.95801C8.50163 7.77116 8.38086 7.62077 8.2168 7.50684C8.05729 7.38835 7.85221 7.3291 7.60156 7.3291C7.36003 7.3291 7.15723 7.38835 6.99316 7.50684C6.83366 7.62077 6.71289 7.77116 6.63086 7.95801C6.55339 8.14486 6.51465 8.34538 6.51465 8.55957ZM7.91602 2.46191L3.05566 10.2412L2.34473 9.79004L7.20508 2.01074L7.91602 2.46191Z" fill="black" fill-opacity="0.54"/>
</svg>
