<svg width="16" height="19" viewBox="0 0 16 19" fill="none" xmlns="http://www.w3.org/2000/svg">
<path fill-rule="evenodd" clip-rule="evenodd" d="M0.916992 2.02279C0.916992 1.04505 1.71009 0.251953 2.68783 0.251953H6.75033C8.96046 0.251953 11.0801 1.12993 12.6429 2.69273C14.2057 4.25553 15.0837 6.37515 15.0837 8.58529V16.3978C15.0837 17.3755 14.2906 18.1686 13.3128 18.1686H2.68783C1.71009 18.1686 0.916992 17.3755 0.916992 16.3978V2.02279ZM13.417 8.89779C13.417 8.37288 13.2085 7.86947 12.8373 7.4983C12.4661 7.12714 11.9627 6.91862 11.4378 6.91862H10.1878C9.71817 6.91862 9.26775 6.73205 8.93566 6.39995C8.60356 6.06786 8.41699 5.61744 8.41699 5.14779V3.89779C8.41699 3.37288 8.20847 2.86947 7.83731 2.4983C7.46614 2.12714 6.96273 1.91862 6.43783 1.91862H2.68783C2.63056 1.91862 2.58366 1.96552 2.58366 2.02279V16.3978C2.58366 16.4551 2.63056 16.502 2.68783 16.502H13.3128C13.3701 16.502 13.417 16.4551 13.417 16.3978V8.89779ZM9.8811 2.69947C10.014 3.08121 10.0837 3.48591 10.0837 3.89779V5.14779C10.0837 5.17541 10.0946 5.20191 10.1142 5.22144C10.1337 5.24098 10.1602 5.25195 10.1878 5.25195H11.4378C11.8497 5.25195 12.2544 5.32165 12.6361 5.45451C12.3289 4.8768 11.9355 4.34239 11.4644 3.87124C10.9932 3.40009 10.4588 3.00674 9.8811 2.69947ZM10.5003 8.37695C10.9606 8.37695 11.3337 8.75005 11.3337 9.21029V13.5853C11.3337 14.0455 10.9606 14.4186 10.5003 14.4186C10.0401 14.4186 9.66699 14.0455 9.66699 13.5853V9.21029C9.66699 8.75005 10.0401 8.37695 10.5003 8.37695ZM8.00033 10.252C8.46056 10.252 8.83366 10.625 8.83366 11.0853V13.5853C8.83366 14.0455 8.46056 14.4186 8.00033 14.4186C7.54009 14.4186 7.16699 14.0455 7.16699 13.5853V11.0853C7.16699 10.625 7.54009 10.252 8.00033 10.252ZM5.50033 12.127C5.96056 12.127 6.33366 12.5 6.33366 12.9603V13.5853C6.33366 14.0455 5.96056 14.4186 5.50033 14.4186C5.04009 14.4186 4.66699 14.0455 4.66699 13.5853V12.9603C4.66699 12.5 5.04009 12.127 5.50033 12.127Z" fill="black" fill-opacity="0.54"/>
</svg>
