<svg width="18" height="18" viewBox="0 0 18 18" fill="none" xmlns="http://www.w3.org/2000/svg">
<path d="M9.00033 17.5431C7.84755 17.5431 6.76421 17.3244 5.75033 16.8869C4.73644 16.4494 3.85449 15.8556 3.10449 15.1056C2.35449 14.3556 1.76074 13.4737 1.32324 12.4598C0.885742 11.4459 0.666992 10.3626 0.666992 9.2098C0.666992 8.05702 0.885742 6.97369 1.32324 5.9598C1.76074 4.94591 2.35449 4.06397 3.10449 3.31396C3.85449 2.56396 4.73644 1.97021 5.75033 1.53271C6.76421 1.09521 7.84755 0.876465 9.00033 0.876465C9.66699 0.876465 10.3163 0.952854 10.9482 1.10563C11.5802 1.25841 12.1878 1.48063 12.7712 1.7723C12.9795 1.88341 13.1149 2.05008 13.1774 2.2723C13.2399 2.49452 13.2017 2.70285 13.0628 2.8973C12.9239 3.09174 12.7399 3.21674 12.5107 3.2723C12.2816 3.32785 12.0559 3.30008 11.8337 3.18897C11.3892 2.98063 10.9274 2.82091 10.4482 2.7098C9.96908 2.59869 9.48644 2.54313 9.00033 2.54313C7.1531 2.54313 5.58019 3.19244 4.28158 4.49105C2.98296 5.78966 2.33366 7.36258 2.33366 9.2098C2.33366 11.057 2.98296 12.6299 4.28158 13.9285C5.58019 15.2272 7.1531 15.8765 9.00033 15.8765C10.8475 15.8765 12.4205 15.2272 13.7191 13.9285C15.0177 12.6299 15.667 11.057 15.667 9.2098C15.667 9.09869 15.6635 8.99105 15.6566 8.88688C15.6496 8.78272 15.6392 8.67508 15.6253 8.56397C15.5975 8.32785 15.6427 8.10216 15.7607 7.88688C15.8788 7.6716 16.0559 7.52924 16.292 7.4598C16.5142 7.39035 16.7225 7.41119 16.917 7.5223C17.1114 7.63341 17.2225 7.80008 17.2503 8.0223C17.2781 8.21674 17.2989 8.41119 17.3128 8.60563C17.3267 8.80008 17.3337 9.00146 17.3337 9.2098C17.3337 10.3626 17.1149 11.4459 16.6774 12.4598C16.2399 13.4737 15.6462 14.3556 14.8962 15.1056C14.1462 15.8556 13.2642 16.4494 12.2503 16.8869C11.2364 17.3244 10.1531 17.5431 9.00033 17.5431ZM7.83366 10.7098L15.5837 2.93897C15.7364 2.78619 15.9274 2.70633 16.1566 2.69938C16.3857 2.69244 16.5837 2.7723 16.7503 2.93897C16.9031 3.09174 16.9795 3.28619 16.9795 3.5223C16.9795 3.75841 16.9031 3.95285 16.7503 4.10563L8.41699 12.4598C8.25033 12.6265 8.05588 12.7098 7.83366 12.7098C7.61144 12.7098 7.41699 12.6265 7.25033 12.4598L4.87533 10.0848C4.72255 9.93202 4.64616 9.73758 4.64616 9.50147C4.64616 9.26535 4.72255 9.07091 4.87533 8.91813C5.0281 8.76535 5.22255 8.68897 5.45866 8.68897C5.69477 8.68897 5.88921 8.76535 6.04199 8.91813L7.83366 10.7098Z" fill="black" fill-opacity="0.54"/>
</svg>
