<svg width="16" height="16" viewBox="0 0 16 16" fill="none" xmlns="http://www.w3.org/2000/svg">
<path fill-rule="evenodd" clip-rule="evenodd" d="M6.92213 0.500041C5.22496 0.493991 3.59489 1.15989 2.39051 2.35124C1.18614 3.54259 0.506113 5.16181 0.500041 6.85269C0.493969 8.54357 1.16234 10.1676 2.35813 11.3675C3.55392 12.5674 5.17917 13.2449 6.87634 13.251C8.2959 13.256 9.66852 12.791 10.7844 11.9416L14.0884 15.257C14.4097 15.5794 14.9325 15.5812 15.2561 15.2611C15.5797 14.941 15.5815 14.4202 15.2602 14.0978L11.9562 10.7824C12.8168 9.67678 13.2933 8.31261 13.2984 6.89831C13.3045 5.20744 12.6361 3.58341 11.4403 2.3835C10.2445 1.18359 8.6193 0.506091 6.92213 0.500041ZM3.55402 3.51876C4.4476 2.63484 5.65702 2.14078 6.91622 2.14527C8.17543 2.14976 9.38127 2.65243 10.2685 3.54269C11.1557 4.43296 11.6516 5.63789 11.6471 6.89243C11.6426 8.14696 11.138 9.34833 10.2444 10.2322C9.35087 11.1162 8.14145 11.6102 6.88225 11.6057C5.62304 11.6012 4.4172 11.0986 3.52999 10.2083C2.64279 9.31805 2.14689 8.11311 2.1514 6.85858C2.1559 5.60404 2.66044 4.40267 3.55402 3.51876Z" fill="black" fill-opacity="0.54"/>
</svg>
