<svg version="1.1"
  xmlns="http://www.w3.org/2000/svg" width="32" height="32" viewBox="0 0 32 32">
  <path d="M13 32c-0.4 0-0.747-0.133-1.040-0.4s-0.467-0.6-0.52-1l-0.48-3.72c-0.347-0.133-0.673-0.293-0.98-0.48s-0.607-0.387-0.9-0.6l-3.48 1.44c-0.373 0.16-0.747 0.18-1.12 0.060s-0.667-0.353-0.88-0.7l-2.96-5.16c-0.213-0.347-0.28-0.72-0.2-1.12s0.28-0.72 0.6-0.96l3-2.28c-0.027-0.187-0.040-0.367-0.040-0.54v-1.080c0-0.173 0.013-0.353 0.040-0.54l-3-2.28c-0.32-0.24-0.52-0.56-0.6-0.96s-0.013-0.773 0.2-1.12l2.96-5.16c0.213-0.347 0.507-0.58 0.88-0.7s0.747-0.1 1.12 0.060l3.48 1.44c0.293-0.213 0.6-0.413 0.92-0.6s0.64-0.347 0.96-0.48l0.48-3.72c0.053-0.4 0.227-0.733 0.52-1s0.64-0.4 1.040-0.4h6c0.4 0 0.747 0.133 1.040 0.4s0.467 0.6 0.52 1l0.48 3.72c0.347 0.133 0.673 0.293 0.98 0.48s0.607 0.387 0.9 0.6l3.48-1.44c0.373-0.16 0.747-0.18 1.12-0.060s0.667 0.353 0.88 0.7l2.96 5.16c0.213 0.347 0.28 0.72 0.2 1.12s-0.28 0.72-0.6 0.96l-3 2.28c0.027 0.187 0.040 0.367 0.040 0.54v1.080c0 0.173-0.027 0.353-0.080 0.54l3 2.28c0.32 0.24 0.52 0.56 0.6 0.96s0.013 0.773-0.2 1.12l-2.96 5.12c-0.213 0.347-0.513 0.587-0.9 0.72s-0.767 0.12-1.14-0.040l-3.4-1.44c-0.293 0.213-0.6 0.413-0.92 0.6s-0.64 0.347-0.96 0.48l-0.48 3.72c-0.053 0.4-0.227 0.733-0.52 1s-0.64 0.4-1.040 0.4h-6zM14.4 28.8h3.16l0.56-4.24c0.827-0.213 1.593-0.527 2.3-0.94s1.353-0.913 1.94-1.5l3.96 1.64 1.56-2.72-3.44-2.6c0.133-0.373 0.227-0.767 0.28-1.18s0.080-0.833 0.080-1.26c0-0.427-0.027-0.847-0.080-1.26s-0.147-0.807-0.28-1.18l3.44-2.6-1.56-2.72-3.96 1.68c-0.587-0.613-1.233-1.127-1.94-1.54s-1.473-0.727-2.3-0.94l-0.52-4.24h-3.16l-0.56 4.24c-0.827 0.213-1.593 0.527-2.3 0.94s-1.353 0.913-1.94 1.5l-3.96-1.64-1.56 2.72 3.44 2.56c-0.133 0.4-0.227 0.8-0.28 1.2s-0.080 0.827-0.080 1.28c0 0.427 0.027 0.84 0.080 1.24s0.147 0.8 0.28 1.2l-3.44 2.6 1.56 2.72 3.96-1.68c0.587 0.613 1.233 1.127 1.94 1.54s1.473 0.727 2.3 0.94l0.52 4.24zM16.080 21.6c1.547 0 2.867-0.547 3.96-1.64s1.64-2.413 1.64-3.96-0.547-2.867-1.64-3.96c-1.093-1.093-2.413-1.64-3.96-1.64-1.573 0-2.9 0.547-3.98 1.64s-1.62 2.413-1.62 3.96c0 1.547 0.54 2.867 1.62 3.96s2.407 1.64 3.98 1.64z"></path>
</svg>
