<svg width="16" height="11" viewBox="0 0 16 11" fill="none" xmlns="http://www.w3.org/2000/svg">
<path d="M1.33333 10.21C1.09722 10.21 0.899306 10.1301 0.739583 9.97038C0.579861 9.81066 0.5 9.61274 0.5 9.37663C0.5 9.14052 0.579861 8.9426 0.739583 8.78288C0.899306 8.62316 1.09722 8.54329 1.33333 8.54329H14.6667C14.9028 8.54329 15.1007 8.62316 15.2604 8.78288C15.4201 8.9426 15.5 9.14052 15.5 9.37663C15.5 9.61274 15.4201 9.81066 15.2604 9.97038C15.1007 10.1301 14.9028 10.21 14.6667 10.21H1.33333ZM1.33333 6.04329C1.09722 6.04329 0.899306 5.96343 0.739583 5.80371C0.579861 5.64399 0.5 5.44607 0.5 5.20996C0.5 4.97385 0.579861 4.77593 0.739583 4.61621C0.899306 4.45649 1.09722 4.37663 1.33333 4.37663H14.6667C14.9028 4.37663 15.1007 4.45649 15.2604 4.61621C15.4201 4.77593 15.5 4.97385 15.5 5.20996C15.5 5.44607 15.4201 5.64399 15.2604 5.80371C15.1007 5.96343 14.9028 6.04329 14.6667 6.04329H1.33333ZM1.33333 1.87663C1.09722 1.87663 0.899306 1.79677 0.739583 1.63704C0.579861 1.47732 0.5 1.27941 0.5 1.04329C0.5 0.807183 0.579861 0.609266 0.739583 0.449544C0.899306 0.289822 1.09722 0.209961 1.33333 0.209961H14.6667C14.9028 0.209961 15.1007 0.289822 15.2604 0.449544C15.4201 0.609266 15.5 0.807183 15.5 1.04329C15.5 1.27941 15.4201 1.47732 15.2604 1.63704C15.1007 1.79677 14.9028 1.87663 14.6667 1.87663H1.33333Z" fill="#006727"/>
</svg>
