<svg version="1.1"
  xmlns="http://www.w3.org/2000/svg" width="32" height="32" viewBox="0 0 32 32">
  <path d="M0 23.564c0-0.824 0.212-1.582 0.636-2.273s0.988-1.218 1.691-1.582c1.503-0.752 3.030-1.315 4.582-1.691s3.127-0.564 4.727-0.564c1.6 0 3.176 0.188 4.727 0.564s3.079 0.939 4.582 1.691c0.703 0.364 1.267 0.891 1.691 1.582s0.636 1.448 0.636 2.273v1.164c0 0.8-0.285 1.485-0.855 2.055s-1.255 0.855-2.055 0.855h-17.455c-0.8 0-1.485-0.285-2.055-0.855s-0.855-1.255-0.855-2.055v-1.164zM29.091 27.636h-3.709c0.267-0.436 0.467-0.903 0.6-1.4s0.2-1 0.2-1.509v-1.455c0-1.067-0.297-2.091-0.891-3.073s-1.436-1.824-2.527-2.527c1.236 0.145 2.4 0.394 3.491 0.745s2.109 0.782 3.055 1.291c0.873 0.485 1.539 1.024 2 1.618s0.691 1.242 0.691 1.945v1.455c0 0.8-0.285 1.485-0.855 2.055s-1.255 0.855-2.055 0.855zM11.636 16c-1.6 0-2.97-0.57-4.109-1.709s-1.709-2.509-1.709-4.109c0-1.6 0.57-2.97 1.709-4.109s2.509-1.709 4.109-1.709c1.6 0 2.97 0.57 4.109 1.709s1.709 2.509 1.709 4.109c0 1.6-0.57 2.97-1.709 4.109s-2.509 1.709-4.109 1.709zM26.182 10.182c0 1.6-0.57 2.97-1.709 4.109s-2.509 1.709-4.109 1.709c-0.267 0-0.606-0.030-1.018-0.091s-0.752-0.127-1.018-0.2c0.655-0.776 1.158-1.636 1.509-2.582s0.527-1.927 0.527-2.945c0-1.018-0.176-2-0.527-2.945s-0.855-1.806-1.509-2.582c0.339-0.121 0.679-0.2 1.018-0.236s0.679-0.055 1.018-0.055c1.6 0 2.97 0.57 4.109 1.709s1.709 2.509 1.709 4.109zM2.909 24.727h17.455v-1.164c0-0.267-0.067-0.509-0.2-0.727s-0.309-0.388-0.527-0.509c-1.309-0.655-2.63-1.145-3.964-1.473s-2.679-0.491-4.036-0.491-2.703 0.164-4.036 0.491c-1.333 0.327-2.655 0.818-3.964 1.473-0.218 0.121-0.394 0.291-0.527 0.509s-0.2 0.461-0.2 0.727v1.164zM11.636 13.091c0.8 0 1.485-0.285 2.055-0.855s0.855-1.255 0.855-2.055c0-0.8-0.285-1.485-0.855-2.055s-1.255-0.855-2.055-0.855c-0.8 0-1.485 0.285-2.055 0.855s-0.855 1.255-0.855 2.055c0 0.8 0.285 1.485 0.855 2.055s1.255 0.855 2.055 0.855z"></path>
</svg>
