<svg version="1.1"
  xmlns="http://www.w3.org/2000/svg" width="32" height="32" viewBox="0 0 32 32">
  <path d="M13.76 18.88l-3.44-3.44c-0.293-0.293-0.667-0.44-1.12-0.44s-0.827 0.147-1.12 0.44c-0.293 0.293-0.44 0.667-0.44 1.12s0.147 0.827 0.44 1.12l4.56 4.56c0.32 0.32 0.693 0.48 1.12 0.48s0.8-0.16 1.12-0.48l9.040-9.040c0.293-0.293 0.44-0.667 0.44-1.12s-0.147-0.827-0.44-1.12c-0.293-0.293-0.667-0.44-1.12-0.44s-0.827 0.147-1.12 0.44l-7.92 7.92zM16 32c-2.213 0-4.293-0.42-6.24-1.26s-3.64-1.98-5.080-3.42c-1.44-1.44-2.58-3.133-3.42-5.080s-1.26-4.027-1.26-6.24c0-2.213 0.42-4.293 1.26-6.24s1.98-3.64 3.42-5.080c1.44-1.44 3.133-2.58 5.080-3.42s4.027-1.26 6.24-1.26c2.213 0 4.293 0.42 6.24 1.26s3.64 1.98 5.080 3.42c1.44 1.44 2.58 3.133 3.42 5.080s1.26 4.027 1.26 6.24c0 2.213-0.42 4.293-1.26 6.24s-1.98 3.64-3.42 5.080c-1.44 1.44-3.133 2.58-5.080 3.42s-4.027 1.26-6.24 1.26zM16 28.8c3.573 0 6.6-1.24 9.080-3.72s3.72-5.507 3.72-9.080c0-3.573-1.24-6.6-3.72-9.080s-5.507-3.72-9.080-3.72c-3.573 0-6.6 1.24-9.080 3.72s-3.72 5.507-3.72 9.080c0 3.573 1.24 6.6 3.72 9.080s5.507 3.72 9.080 3.72z"></path>
</svg>
